<svg width="333" height="67" viewBox="0 0 333 67" fill="none" xmlns="http://www.w3.org/2000/svg">
<path d="M320.127 37.3745H297.159L291.454 52.8812H284.286L304.035 0.802185H313.178L333 52.8812H325.759L320.127 37.3745ZM317.932 31.4498L316.25 26.6954C313.617 19.4541 311.203 12.7248 308.716 5.48344H308.57C306.083 12.7248 303.669 19.4541 301.036 26.6954L299.28 31.4498H317.932Z" fill="black"/>
<path d="M250.271 46.8833H276.896V52.8812H243.542V0.802185H250.271V46.8833Z" fill="black"/>
<path d="M204.791 15.7237L189.87 54.5635C186.213 64.0723 182.555 66.7055 174.583 66.7055C173.339 66.7055 172.169 66.6324 171.218 66.3398V60.9271C172.096 61.2197 173.12 61.3659 174.29 61.3659C179.191 61.3659 181.093 59.6105 183.506 53.0275L169.389 15.7237H176.338L187.017 45.2741H187.164L197.989 15.7237H204.791Z" fill="black"/>
<path d="M161.806 15.358C162.611 15.358 163.708 15.4311 164.512 15.6506V21.429C163.708 21.3558 162.757 21.2095 161.952 21.2095C154.93 21.2095 150.981 25.7445 150.981 33.9367V52.8812H144.544V15.7237H150.688V21.429H150.834C153.321 17.3329 157.052 15.358 161.806 15.358Z" fill="black"/>
<path d="M134.82 47.8342C135.771 47.8342 136.795 47.6879 137.453 47.4684V52.7348C136.356 53.0274 134.674 53.1737 133.357 53.1737C126.262 53.1737 123.263 50.1748 123.263 42.4946V20.8438H116.827V15.7237H123.263V6.72687H129.7V15.7237H137.088V20.8438H129.7V41.8363C129.7 46.0787 131.09 47.8342 134.82 47.8342Z" fill="black"/>
<path d="M96.4784 48.9313C101.891 48.9313 105.402 45.9324 106.28 41.7632H112.863C111.619 48.273 105.987 53.9052 96.4784 53.9052C85.5067 53.9052 78.9968 45.9324 78.9968 33.7904C78.9968 22.8187 85.4336 14.6996 96.259 14.6996C104.671 14.6996 110.595 19.6735 112.497 27.6462C113.009 29.7674 113.229 32.4006 113.229 35.619H85.4336C85.7261 44.7621 90.4074 48.9313 96.4784 48.9313ZM96.259 19.6735C90.3342 19.6735 86.165 23.6233 85.5067 30.7183H106.865C106.207 23.477 101.964 19.6735 96.259 19.6735Z" fill="black"/>
<path d="M56.0151 14.6996C66.9136 14.6996 73.7161 22.1604 73.7161 34.3024C73.7161 46.4444 66.9136 53.9052 56.0151 53.9052C45.1165 53.9052 38.3872 46.4444 38.3872 34.3024C38.3872 22.1604 45.1165 14.6996 56.0151 14.6996ZM56.0151 19.9661C49.2858 19.9661 45.1165 25.4519 45.1165 34.3024C45.1165 43.1529 49.2858 48.6388 56.0151 48.6388C62.8175 48.6388 66.9867 43.1529 66.9867 34.3024C66.9867 25.4519 62.8175 19.9661 56.0151 19.9661Z" fill="black"/>
<path d="M0.291992 0.802185H18.1393C30.135 0.802185 36.3523 7.01948 36.3523 16.5283C36.3523 26.0371 30.135 32.2544 18.1393 32.2544H7.0213V52.8812H0.291992V0.802185ZM7.0213 6.65375V26.4028H17.6273C25.5269 26.4028 29.4036 22.6724 29.4036 16.5283C29.4036 10.3841 25.5269 6.65375 17.6273 6.65375H7.0213Z" fill="black"/>
<circle cx="222.907" cy="30.2876" r="4.94322" fill="black"/>
</svg>
